Coordinates
version=1
nRows=11
nColumns=63
inDegrees=yes

Units are S.I. units (second, meters, Newtons, ...)
If the header above contains a line with 'inDegrees', this indicates whether rotational values are in degrees (yes) or radians (no).

endheader
time	pelvis_tilt	pelvis_list	pelvis_rotation	pelvis_tx	pelvis_ty	pelvis_tz	hip_flexion_r	hip_adduction_r	hip_rotation_r	knee_angle_r	knee_angle_r_beta	ankle_angle_r	subtalar_angle_r	mtp_angle_r	hip_flexion_l	hip_adduction_l	hip_rotation_l	knee_angle_l	knee_angle_l_beta	ankle_angle_l	subtalar_angle_l	mtp_angle_l	L5_S1_Flex_Ext	L5_S1_Lat_Bending	L5_S1_axial_rotation	L4_L5_Flex_Ext	L4_L5_Lat_Bending	L4_L5_axial_rotation	L3_L4_Flex_Ext	L3_L4_Lat_Bending	L3_L4_axial_rotation	L2_L3_Flex_Ext	L2_L3_Lat_Bending	L2_L3_axial_rotation	L1_L2_Flex_Ext	L1_L2_Lat_Bending	L1_L2_axial_rotation	L1_T12_Flex_Ext	L1_T12_Lat_Bending	L1_T12_axial_rotation	Abs_r3	Abs_r2	Abs_r1	Abs_t1	Abs_t2	neck_flexion	neck_bending	neck_rotation	arm_flex_r	arm_add_r	arm_rot_r	elbow_flex_r	pro_sup_r	wrist_flex_r	wrist_dev_r	arm_flex_l	arm_add_l	arm_rot_l	elbow_flex_l	pro_sup_l	wrist_flex_l	wrist_dev_l
0.000000	-2.024435	-3.766279	102.632924	0.058742	0.947534	0.556239	2.744907	-0.824975	-8.917064	10.773780	0.188038	23.218404	2.990023	0.000000	2.172955	0.581780	2.583970	4.007639	0.069946	23.804048	5.355495	0.000000	0.120949	0.300159	-1.405101	0.224614	0.399212	-1.492920	0.198707	0.729807	-1.492920	0.138233	0.729807	-1.229464	0.112313	0.612085	-1.141645	0.069110	0.464947	-1.053826	0.863927	3.395460	-7.814752	0.000000	0.000000	22.872996	-4.240584	7.560054	14.710673	-12.703163	67.531771	51.568891	62.346833	8.282551	20.350165	12.896756	-10.597822	52.805661	57.665385	71.672125	16.211217	18.386203
0.016949	-2.240571	-3.822222	103.205918	0.058132	0.947409	0.554205	2.369687	-1.096822	-11.321938	10.420226	0.181867	23.555234	5.663755	0.000000	2.128428	0.721741	2.172582	4.166310	0.072716	24.185897	7.236961	0.000000	0.139858	0.253296	-1.353042	0.259730	0.336883	-1.437607	0.229773	0.615863	-1.437607	0.159844	0.615863	-1.183911	0.129872	0.516520	-1.099346	0.079915	0.392355	-1.014781	0.998991	2.865331	-7.525211	0.000000	0.000000	23.198031	-3.670276	6.829393	12.929458	-12.821717	64.879562	52.241876	65.123298	8.622206	19.246204	11.937844	-10.260901	51.600275	57.592738	72.753974	16.936747	18.913837
0.033898	-2.421581	-3.840732	103.664522	0.057567	0.947361	0.552378	2.017788	-1.314279	-13.240851	10.095030	0.176192	23.889886	7.851224	0.000000	2.034362	0.839935	1.900316	4.247395	0.074131	24.503221	8.686520	0.000000	0.154167	0.216116	-1.318298	0.286304	0.287434	-1.400691	0.253282	0.525465	-1.400691	0.176198	0.525465	-1.153510	0.143160	0.440704	-1.071117	0.088091	0.334764	-0.988723	1.101203	2.444749	-7.331975	0.000000	0.000000	23.402192	-3.222608	6.256955	11.501578	-12.909297	62.745770	52.755174	67.524042	8.988365	18.420478	11.077368	-9.975243	50.500851	57.562496	73.752889	17.578515	19.369809
0.050847	-2.570383	-3.826304	104.016385	0.057049	0.947379	0.550754	1.690443	-1.482672	-14.716222	9.798093	0.171009	24.221623	9.596118	0.000000	1.897542	0.938339	1.756112	4.259467	0.074342	24.759349	9.736252	0.000000	0.164265	0.187747	-1.298911	0.305056	0.249703	-1.380093	0.269870	0.456488	-1.380093	0.187738	0.456488	-1.136547	0.152536	0.382853	-1.055365	0.093861	0.290820	-0.974183	1.173325	2.123831	-7.224154	0.000000	0.000000	23.497114	-2.885048	5.830063	10.397299	-12.969498	61.091873	53.128600	69.510884	9.346456	17.850780	10.309670	-9.736402	49.500564	57.568819	74.670307	18.140461	19.757458
0.067797	-2.689893	-3.783430	104.269155	0.056582	0.947455	0.549324	1.388884	-1.607325	-15.790467	9.529319	0.166318	24.549703	10.942123	0.000000	1.724755	1.018932	1.728910	4.211102	0.073498	24.957609	10.418238	0.000000	0.170536	0.167314	-1.292924	0.316703	0.222528	-1.373732	0.280174	0.406807	-1.373732	0.194906	0.406807	-1.131309	0.158360	0.341187	-1.050501	0.097444	0.259169	-0.969693	1.218123	1.892689	-7.190857	0.000000	0.000000	23.494435	-2.645068	5.536038	9.586892	-13.005915	59.879348	53.381968	71.045645	9.661905	17.514905	9.629095	-9.539935	48.592588	57.605865	75.507665	18.626527	20.080122
0.084746	-2.783031	-3.716603	104.430479	0.056170	0.947580	0.548083	1.114346	-1.693562	-16.506005	9.288608	0.162117	24.873389	11.932926	0.000000	1.522788	1.083694	1.807651	4.110877	0.071748	25.101329	10.764555	0.000000	0.173369	0.153943	-1.298379	0.321964	0.204745	-1.379528	0.284828	0.374298	-1.379528	0.198144	0.374298	-1.136081	0.160991	0.313921	-1.054933	0.099063	0.238458	-0.973784	1.238360	1.741438	-7.221194	0.000000	0.000000	23.405788	-2.490137	5.362204	9.040625	-13.022145	59.069674	53.535093	72.090144	9.900138	17.390646	9.029987	-9.381398	47.770097	57.667796	76.266399	19.040652	20.341143
0.101695	-2.852712	-3.630317	104.508007	0.055816	0.947743	0.547022	0.868061	-1.746710	-16.905253	9.075864	0.158404	25.191941	12.612213	0.000000	1.298425	1.134602	1.981273	3.967365	0.069244	25.193837	10.807286	0.000000	0.173151	0.146761	-1.313317	0.321559	0.195193	-1.395399	0.284470	0.356835	-1.395399	0.197894	0.356835	-1.149152	0.160788	0.299276	-1.067070	0.098939	0.227333	-0.984987	1.236801	1.660193	-7.304273	0.000000	0.000000	23.242811	-2.407724	5.295883	8.728768	-13.021781	58.624328	53.607789	72.606199	10.026581	17.455797	8.506689	-9.256347	47.026265	57.748770	76.947947	19.386777	20.543860
0.118644	-2.901855	-3.529065	104.509386	0.055523	0.947936	0.546135	0.651262	-1.772091	-17.030628	8.890986	0.155177	25.504619	13.023671	0.000000	1.058454	1.173637	2.238718	3.789143	0.066133	25.238463	10.578509	0.000000	0.170268	0.144894	-1.335779	0.316205	0.192709	-1.419266	0.279734	0.352295	-1.419266	0.194600	0.352295	-1.168807	0.158111	0.295468	-1.085321	0.097291	0.224441	-1.001835	1.216210	1.639068	-7.429204	0.000000	0.000000	23.017138	-2.385300	5.324397	8.621589	-13.008421	58.504789	53.619870	72.555629	10.006661	17.688153	8.053545	-9.160340	46.354266	57.842947	77.553745	19.668843	20.691611
0.135593	-2.933378	-3.417340	104.442264	0.055295	0.948149	0.545415	0.465183	-1.775032	-16.924548	8.733879	0.152435	25.810685	13.210987	0.000000	0.809660	1.202777	2.568924	3.584786	0.062566	25.238533	10.110304	0.000000	0.165108	0.147467	-1.363809	0.306622	0.196131	-1.449047	0.271256	0.358551	-1.449047	0.188702	0.358551	-1.193333	0.153319	0.300715	-1.108095	0.094343	0.228426	-1.022857	1.179351	1.668177	-7.585097	0.000000	0.000000	22.740406	-2.410335	5.435070	8.689359	-12.985660	58.672535	53.591152	71.900255	9.805804	18.065507	7.664899	-9.088931	45.747274	57.944488	78.085231	19.890790	20.787738
0.152542	-2.950198	-3.299635	104.314289	0.055136	0.948374	0.544856	0.311056	-1.760856	-16.629431	8.604442	0.150176	26.109398	13.217848	0.000000	0.558829	1.224000	2.960833	3.362869	0.058693	25.197377	9.434750	0.000000	0.158058	0.153607	-1.395448	0.293529	0.204297	-1.482663	0.259673	0.373480	-1.482663	0.180644	0.373480	-1.221017	0.146772	0.313236	-1.133801	0.090314	0.237937	-1.046586	1.128990	1.737634	-7.761062	0.000000	0.000000	22.424250	-2.470297	5.615223	8.902345	-12.957093	59.089042	53.541447	70.601896	9.389436	18.565653	7.335094	-9.037678	45.198464	58.047551	78.543842	20.056559	20.835579
0.169492	-2.955232	-3.180443	104.133111	0.055048	0.948600	0.544449	0.190114	-1.734889	-16.187694	8.502580	0.148398	26.400020	13.087940	0.000000	0.312748	1.239286	3.403384	3.131968	0.054663	25.118323	8.583929	0.000000	0.149504	0.162440	-1.428737	0.277643	0.216045	-1.518033	0.245619	0.394956	-1.518033	0.170868	0.394956	-1.250145	0.138829	0.331248	-1.160849	0.085426	0.251619	-1.071553	1.067889	1.837553	-7.946206	0.000000	0.000000	22.080306	-2.552658	5.852179	9.230817	-12.926316	59.715791	53.490570	68.622370	8.722984	19.166385	7.058475	-9.002136	44.701010	58.146297	78.931014	20.170089	20.838474
